<svg xmlns="http://www.w3.org/2000/svg" viewBox="0 0 1024 1024">
  <defs>
    <linearGradient id="bg" x1="180" y1="120" x2="850" y2="920" gradientUnits="userSpaceOnUse">
      <stop offset="0" stop-color="#5EEAD4"/>
      <stop offset="0.46" stop-color="#60A5FA"/>
      <stop offset="1" stop-color="#F472B6"/>
    </linearGradient>
    <linearGradient id="panel" x1="290" y1="260" x2="760" y2="760" gradientUnits="userSpaceOnUse">
      <stop offset="0" stop-color="#FFFFFF"/>
      <stop offset="1" stop-color="#E0F2FE"/>
    </linearGradient>
    <filter id="soft-shadow" x="-20%" y="-20%" width="140%" height="145%">
      <feDropShadow dx="0" dy="30" stdDeviation="34" flood-color="#0F172A" flood-opacity="0.24"/>
    </filter>
  </defs>

  <rect width="1024" height="1024" rx="236" fill="#0F172A"/>
  <circle cx="512" cy="512" r="410" fill="url(#bg)"/>

  <g filter="url(#soft-shadow)">
    <rect x="258" y="286" width="508" height="430" rx="112" fill="url(#panel)"/>
    <path
      d="M338 430c0-49 40-89 89-89h170c49 0 89 40 89 89v115c0 49-40 89-89 89H427c-49 0-89-40-89-89V430Z"
      fill="#0F172A"
      opacity="0.92"
    />
    <circle cx="441" cy="486" r="34" fill="#5EEAD4"/>
    <circle cx="583" cy="486" r="34" fill="#FDE68A"/>
    <path
      d="M447 570c39 34 92 34 130 0"
      fill="none"
      stroke="#F8FAFC"
      stroke-width="28"
      stroke-linecap="round"
    />
  </g>

  <path
    d="M724 214l22 62 63 22-63 22-22 63-22-63-63-22 63-22 22-62Z"
    fill="#F8FAFC"
    opacity="0.92"
  />
  <path
    d="M244 670l14 40 40 14-40 14-14 40-14-40-40-14 40-14 14-40Z"
    fill="#F8FAFC"
    opacity="0.78"
  />
</svg>
